<svg id="Capa_1" enable-background="new 0 0 512 512" height="512" viewBox="0 0 512 512" width="512" xmlns="http://www.w3.org/2000/svg"><path d="m466.916 27.804h-421.832c-24.859 0-45.084 20.224-45.084 45.083v366.227c0 24.858 20.225 45.083 45.084 45.083h421.832c24.859 0 45.084-20.225 45.084-45.083v-366.227c0-24.859-20.225-45.083-45.084-45.083zm15.084 411.309c0 8.316-6.767 15.083-15.084 15.083h-421.832c-8.317 0-15.084-6.767-15.084-15.083v-366.226c0-8.316 6.767-15.083 15.084-15.083h421.832c8.317 0 15.084 6.767 15.084 15.083z"/><path d="m256 157.284c-54.432 0-98.716 44.284-98.716 98.716s44.284 98.716 98.716 98.716 98.716-44.284 98.716-98.716-44.284-98.716-98.716-98.716zm0 167.432c-37.89 0-68.716-30.826-68.716-68.716s30.826-68.716 68.716-68.716 68.716 30.826 68.716 68.716-30.826 68.716-68.716 68.716z"/></svg>