<svg id="Capa_1" enable-background="new 0 0 512 512" height="512" viewBox="0 0 512 512" width="512" xmlns="http://www.w3.org/2000/svg"><path d="m466.916 27.803h-421.832c-24.859 0-45.084 20.225-45.084 45.084v366.226c0 24.858 20.225 45.083 45.084 45.083h421.832c24.859 0 45.084-20.225 45.084-45.083v-366.226c0-24.859-20.225-45.084-45.084-45.084zm-183.491 270.622v155.771h-54.851v-155.771c0-8.284-6.716-15-15-15h-183.574v-54.85h183.575c8.284 0 15-6.716 15-15v-155.772h54.851v155.771c0 8.284 6.716 15 15 15h183.574v54.85h-183.575c-8.284.001-15 6.717-15 15.001zm30 61.633 113.158 94.138h-113.158zm-114.85 94.139h-111.871l111.871-92.675zm-168.575-255.622v-74.3l89.313 74.3zm0 114.85h87.44l-87.44 72.742zm168.575-164.743-109.241-90.879h109.241zm114.85-90.879h111.896l-111.896 92.768zm81.307 140.772 87.268-72.599v72.599zm87.268 114.85v71.041l-85.395-71.041zm0-240.538v14.064l-134.177 111.624h-34.398v-9.034l157.804-130.829c.08-.066.148-.14.226-.208 6.106 1.932 10.545 7.648 10.545 14.383zm-439.086-14.909c.485.541 1 1.064 1.575 1.543l154.085 128.185v10.869h-32.353l-136.221-113.324v-12.364c0-7.578 5.624-13.851 12.914-14.909zm-12.914 367.213 134.349-111.766h34.225v9.14l-158.043 130.925c-6.098-1.935-10.531-7.647-10.531-14.376zm442.285 28.001-158.86-132.157v-7.609h36.271l131.906 109.734c.129.108.266.2.398.302v15.652c0 6.423-4.045 11.907-9.715 14.078z"/></svg>