<svg id="_x31__x2C_5" enable-background="new 0 0 24 24" height="512" viewBox="0 0 24 24" width="512" xmlns="http://www.w3.org/2000/svg"><path d="m21.25 24h-18.5c-1.517 0-2.75-1.233-2.75-2.75v-18.5c0-1.517 1.233-2.75 2.75-2.75h18.5c1.517 0 2.75 1.233 2.75 2.75v18.5c0 1.517-1.233 2.75-2.75 2.75zm-18.5-22.5c-.689 0-1.25.561-1.25 1.25v18.5c0 .689.561 1.25 1.25 1.25h18.5c.689 0 1.25-.561 1.25-1.25v-18.5c0-.689-.561-1.25-1.25-1.25z"/><path d="m7.25 15.75c-.192 0-.384-.073-.53-.22l-3-3c-.293-.293-.293-.768 0-1.061l3-3c.293-.293.768-.293 1.061 0s.293.768 0 1.061l-2.47 2.47 2.47 2.47c.293.293.293.768 0 1.061-.147.146-.339.219-.531.219z"/><path d="m10.75 17c-.07 0-.142-.01-.212-.03-.397-.117-.625-.534-.508-.931l2.5-8.5c.117-.398.537-.622.931-.508.397.117.625.534.508.931l-2.5 8.5c-.095.327-.395.538-.719.538z"/><path d="m16.75 15.75c-.192 0-.384-.073-.53-.22-.293-.293-.293-.768 0-1.061l2.47-2.47-2.47-2.47c-.293-.293-.293-.768 0-1.061s.768-.293 1.061 0l3 3c.293.293.293.768 0 1.061l-3 3c-.147.148-.339.221-.531.221z"/></svg>