<svg id="Capa_1" enable-background="new 0 0 511.676 511.676" height="512" viewBox="0 0 511.676 511.676" width="512" xmlns="http://www.w3.org/2000/svg"><g><path d="m481.676 33.999h-451.676c-16.542 0-30 13.458-30 30v383.678c0 16.542 13.458 30 30 30h451.676c16.542 0 30-13.458 30-30v-383.678c0-16.542-13.458-30-30-30zm-451.676 30h451.676v30.568h-451.693l-.002-30.567s.006-.001.019-.001zm0 383.678-.016-323.109h451.692v323.109z"/><path d="m407.723 274.034-62.021-49.144c-6.491-5.145-15.927-4.053-21.072 2.441-5.145 6.493-4.052 15.927 2.441 21.072l47.183 37.387-47.184 37.388c-6.493 5.145-7.585 14.58-2.44 21.072 2.961 3.737 7.342 5.685 11.766 5.685 3.263 0 6.55-1.06 9.306-3.244l62.021-49.145c3.59-2.846 5.684-7.176 5.684-11.757.001-4.579-2.093-8.909-5.684-11.755z"/><path d="m187.045 227.332c-5.145-6.493-14.58-7.586-21.072-2.441l-62.021 49.144c-3.591 2.846-5.685 7.176-5.685 11.757s2.094 8.911 5.684 11.757l62.021 49.145c2.757 2.184 6.042 3.244 9.306 3.244 4.423-.001 8.806-1.949 11.766-5.685 5.145-6.492 4.052-15.927-2.44-21.072l-47.184-37.388 47.183-37.387c6.494-5.147 7.587-14.581 2.442-21.074z"/><path d="m280.658 193.051c-8.01-2.122-16.22 2.651-18.34 10.66l-41.443 156.481c-2.121 8.008 2.651 16.219 10.66 18.34 1.287.341 2.579.504 3.85.504 6.64 0 12.71-4.442 14.49-11.164l41.443-156.48c2.121-8.009-2.652-16.22-10.66-18.341z"/></g></svg>