<?xml version="1.0" encoding="iso-8859-1"?>
<!-- Generator: Adobe Illustrator 19.0.0, SVG Export Plug-In . SVG Version: 6.00 Build 0)  -->
<svg version="1.1" id="Capa_1" xmlns="http://www.w3.org/2000/svg" xmlns:xlink="http://www.w3.org/1999/xlink" x="0px" y="0px"
	 viewBox="0 0 433.28 433.28" style="enable-background:new 0 0 433.28 433.28;" xml:space="preserve">
<g>
	<g>
		<path d="M216.64,0C96.993,0,0,96.993,0,216.64s96.993,216.64,216.64,216.64s216.64-96.993,216.64-216.64
			C433.148,97.048,336.232,0.132,216.64,0z M417.12,208.64h-61.6c-0.565-29.468-5.25-58.711-13.92-86.88
			c13.419-6,26.18-13.372,38.08-22C402.593,131.583,415.615,169.455,417.12,208.64z M369.76,87.2
			c-10.382,7.519-21.475,14.003-33.12,19.36c-10.611-29.969-28.282-56.943-51.52-78.64C318.01,39.981,347.184,60.414,369.76,87.2z
			 M272.56,224.64h67.04c-0.548,27.407-4.799,54.613-12.64,80.88c-18.64-6.955-37.939-11.994-57.6-15.04
			C271.36,268,272.4,245.36,272.56,224.64z M269.44,142.8c19.661-3.046,38.96-8.085,57.6-15.04
			c7.786,26.274,11.984,53.481,12.48,80.88h-66.88C272.64,188,271.36,165.36,269.44,142.8z M321.76,112.64
			c-17.471,6.564-35.564,11.336-54,14.24C263.12,84,254.8,43.52,241.92,20.24C275.68,31.84,304.64,66,321.76,112.64z M256.64,224.64
			c0,23.28-1.2,44.56-2.8,64c-24.621-2.671-49.459-2.671-74.08,0c-1.6-19.12-2.56-40.4-2.8-64H256.64z M176.64,208.64
			c0-23.28,1.2-44.56,2.8-64c12.301,1.338,24.666,2.006,37.04,2c12.427,0.011,24.846-0.656,37.2-2c1.6,19.12,2.56,40.4,2.8,64
			H176.64z M216.64,16c10.4,0,27.6,38.56,35.6,113.04c-11.823,1.288-23.707,1.929-35.6,1.92c-11.9-0.124-23.784-0.898-35.6-2.32
			C189.04,54.56,206.24,16,216.64,16z M191.36,20.24v0.08c-12.88,23.28-21.2,64-25.84,106.64c-18.439-2.93-36.532-7.728-54-14.32
			C128.64,66,157.6,31.84,191.36,20.24z M160.64,208.64H93.76c0.548-27.407,4.799-54.613,12.64-80.88
			c18.64,6.955,37.939,11.994,57.6,15.04C162,165.36,160.64,188,160.64,208.64z M164,290.48h-0.16
			c-19.661,3.046-38.96,8.085-57.6,15.04c-7.786-26.274-11.984-53.481-12.48-80.88h66.88C160.64,245.28,162,267.92,164,290.48z
			 M148.48,27.92c-23.354,21.662-41.137,48.638-51.84,78.64c-11.759-5.364-22.96-11.875-33.44-19.44
			C85.964,60.272,115.368,39.86,148.48,27.92z M53.68,99.76v0.16c11.9,8.628,24.661,16,38.08,22
			c-8.682,28.114-13.395,57.302-14,86.72h-61.6C17.688,169.447,30.739,131.574,53.68,99.76z M53.6,333.52
			c-22.913-31.823-35.935-69.695-37.44-108.88h61.6c0.565,29.468,5.25,58.711,13.92,86.88
			C78.261,317.518,65.499,324.891,53.6,333.52z M63.52,346.08c10.383-7.517,21.476-14.001,33.12-19.36
			c10.599,29.998,28.272,57,51.52,78.72C115.262,393.356,86.087,372.895,63.52,346.08z M111.52,320.64
			c17.471-6.564,35.564-11.336,54-14.24c4.64,42.88,12.96,83.36,25.84,106.64C157.6,401.44,128.64,367.28,111.52,320.64z
			 M216.64,417.28c-10.4,0-27.6-38.56-35.6-113.04c23.636-2.583,47.484-2.583,71.12,0C244.24,378.72,227.04,417.28,216.64,417.28z
			 M241.92,413.04v-0.08c12.88-23.28,21.2-64,25.84-106.64c18.439,2.93,36.532,7.728,54,14.32
			C304.64,367.28,275.68,401.44,241.92,413.04z M284.8,405.36v-0.4c23.301-21.548,41.08-48.382,51.84-78.24
			c11.759,5.364,22.96,11.875,33.44,19.44C347.316,373.008,317.912,393.42,284.8,405.36z M379.6,333.52v-0.56
			c-11.9-8.628-24.661-16-38.08-22c8.646-27.985,13.357-57.037,14-86.32h61.6C415.592,263.833,402.541,301.706,379.6,333.52z"/>
	</g>
</g>
<g>
</g>
<g>
</g>
<g>
</g>
<g>
</g>
<g>
</g>
<g>
</g>
<g>
</g>
<g>
</g>
<g>
</g>
<g>
</g>
<g>
</g>
<g>
</g>
<g>
</g>
<g>
</g>
<g>
</g>
</svg>
